<?xml version="1.0" encoding="utf-8" standalone="no"?>
<!DOCTYPE svg PUBLIC "-//W3C//DTD SVG 1.1//EN"
  "http://www.w3.org/Graphics/SVG/1.1/DTD/svg11.dtd">
<svg xmlns:xlink="http://www.w3.org/1999/xlink" width="738.664855pt" height="479.839425pt" viewBox="0 0 738.664855 479.839425" xmlns="http://www.w3.org/2000/svg" version="1.1">
 <metadata>
  <rdf:RDF xmlns:dc="http://purl.org/dc/elements/1.1/" xmlns:cc="http://creativecommons.org/ns#" xmlns:rdf="http://www.w3.org/1999/02/22-rdf-syntax-ns#">
   <cc:Work>
    <dc:type rdf:resource="http://purl.org/dc/dcmitype/StillImage"/>
    <dc:date>2024-11-19T14:50:53.908920</dc:date>
    <dc:format>image/svg+xml</dc:format>
    <dc:creator>
     <cc:Agent>
      <dc:title>Matplotlib v3.9.2, https://matplotlib.org/</dc:title>
     </cc:Agent>
    </dc:creator>
   </cc:Work>
  </rdf:RDF>
 </metadata>
 <defs>
  <style type="text/css">*{stroke-linejoin: round; stroke-linecap: butt}</style>
 </defs>
 <g id="figure_1">
  <g id="patch_1">
   <path d="M 0 479.839425 
L 738.664855 479.839425 
L 738.664855 0 
L 0 0 
z
" style="fill: #ffffff"/>
  </g>
  <g id="axes_1">
   <g id="patch_2">
    <path d="M 52.312587 359.676997 
L 721.912587 359.676997 
L 721.912587 27.036997 
L 52.312587 27.036997 
z
" style="fill: #ffffff"/>
   </g>
   <g id="matplotlib.axis_1">
    <g id="xtick_1">
     <g id="line2d_1">
      <path d="M 82.74895 359.676997 
L 82.74895 27.036997 
" clip-path="url(#peb83296d7c)" style="fill: none; stroke: #b0b0b0; stroke-width: 0.8; stroke-linecap: square"/>
     </g>
     <g id="line2d_2">
      <defs>
       <path id="mb616978b6b" d="M 0 0 
L 0 3.5 
" style="stroke: #000000; stroke-width: 0.8"/>
      </defs>
      <g>
       <use xlink:href="#mb616978b6b" x="82.74895" y="359.676997" style="stroke: #000000; stroke-width: 0.8"/>
      </g>
     </g>
     <g id="text_1">
      <!-- $\mathdefault{0}$ -->
      <g transform="translate(78.846957 377.746585) scale(0.16 -0.16)">
       <defs>
        <path id="CMR17-30" d="M 2688 2025 
C 2688 2416 2682 3080 2413 3591 
C 2176 4039 1798 4198 1466 4198 
C 1158 4198 768 4058 525 3597 
C 269 3118 243 2524 243 2025 
C 243 1661 250 1106 448 619 
C 723 -39 1216 -128 1466 -128 
C 1760 -128 2208 -7 2470 600 
C 2662 1042 2688 1559 2688 2025 
z
M 1466 -26 
C 1056 -26 813 325 723 812 
C 653 1188 653 1738 653 2096 
C 653 2588 653 2997 736 3387 
C 858 3929 1216 4096 1466 4096 
C 1728 4096 2067 3923 2189 3400 
C 2272 3036 2278 2607 2278 2096 
C 2278 1680 2278 1169 2202 792 
C 2067 95 1690 -26 1466 -26 
z
" transform="scale(0.015625)"/>
       </defs>
       <use xlink:href="#CMR17-30" transform="scale(0.996264)"/>
      </g>
     </g>
    </g>
    <g id="xtick_2">
     <g id="line2d_3">
      <path d="M 204.494405 359.676997 
L 204.494405 27.036997 
" clip-path="url(#peb83296d7c)" style="fill: none; stroke: #b0b0b0; stroke-width: 0.8; stroke-linecap: square"/>
     </g>
     <g id="line2d_4">
      <g>
       <use xlink:href="#mb616978b6b" x="204.494405" y="359.676997" style="stroke: #000000; stroke-width: 0.8"/>
      </g>
     </g>
     <g id="text_2">
      <!-- $\mathdefault{200}$ -->
      <g transform="translate(192.788425 377.746585) scale(0.16 -0.16)">
       <defs>
        <path id="CMR17-32" d="M 2669 989 
L 2554 989 
C 2490 536 2438 459 2413 420 
C 2381 369 1920 369 1830 369 
L 602 369 
C 832 619 1280 1072 1824 1597 
C 2214 1967 2669 2402 2669 3035 
C 2669 3790 2067 4224 1395 4224 
C 691 4224 262 3604 262 3030 
C 262 2780 448 2748 525 2748 
C 589 2748 781 2787 781 3010 
C 781 3207 614 3264 525 3264 
C 486 3264 448 3258 422 3245 
C 544 3790 915 4058 1306 4058 
C 1862 4058 2227 3617 2227 3035 
C 2227 2479 1901 2000 1536 1584 
L 262 146 
L 262 0 
L 2515 0 
L 2669 989 
z
" transform="scale(0.015625)"/>
       </defs>
       <use xlink:href="#CMR17-32" transform="scale(0.996264)"/>
       <use xlink:href="#CMR17-30" transform="translate(45.690477 0) scale(0.996264)"/>
       <use xlink:href="#CMR17-30" transform="translate(91.380954 0) scale(0.996264)"/>
      </g>
     </g>
    </g>
    <g id="xtick_3">
     <g id="line2d_5">
      <path d="M 326.23986 359.676997 
L 326.23986 27.036997 
" clip-path="url(#peb83296d7c)" style="fill: none; stroke: #b0b0b0; stroke-width: 0.8; stroke-linecap: square"/>
     </g>
     <g id="line2d_6">
      <g>
       <use xlink:href="#mb616978b6b" x="326.23986" y="359.676997" style="stroke: #000000; stroke-width: 0.8"/>
      </g>
     </g>
     <g id="text_3">
      <!-- $\mathdefault{400}$ -->
      <g transform="translate(314.533879 377.746585) scale(0.16 -0.16)">
       <defs>
        <path id="CMR17-34" d="M 2150 4122 
C 2150 4256 2144 4256 2029 4256 
L 128 1254 
L 128 1088 
L 1779 1088 
L 1779 457 
C 1779 224 1766 160 1318 160 
L 1197 160 
L 1197 0 
C 1402 0 1747 0 1965 0 
C 2182 0 2528 0 2733 0 
L 2733 160 
L 2611 160 
C 2163 160 2150 224 2150 457 
L 2150 1088 
L 2803 1088 
L 2803 1254 
L 2150 1254 
L 2150 4122 
z
M 1798 3703 
L 1798 1254 
L 256 1254 
L 1798 3703 
z
" transform="scale(0.015625)"/>
       </defs>
       <use xlink:href="#CMR17-34" transform="scale(0.996264)"/>
       <use xlink:href="#CMR17-30" transform="translate(45.690477 0) scale(0.996264)"/>
       <use xlink:href="#CMR17-30" transform="translate(91.380954 0) scale(0.996264)"/>
      </g>
     </g>
    </g>
    <g id="xtick_4">
     <g id="line2d_7">
      <path d="M 447.985314 359.676997 
L 447.985314 27.036997 
" clip-path="url(#peb83296d7c)" style="fill: none; stroke: #b0b0b0; stroke-width: 0.8; stroke-linecap: square"/>
     </g>
     <g id="line2d_8">
      <g>
       <use xlink:href="#mb616978b6b" x="447.985314" y="359.676997" style="stroke: #000000; stroke-width: 0.8"/>
      </g>
     </g>
     <g id="text_4">
      <!-- $\mathdefault{600}$ -->
      <g transform="translate(436.279334 377.746585) scale(0.16 -0.16)">
       <defs>
        <path id="CMR17-36" d="M 678 2176 
C 678 3690 1395 4032 1811 4032 
C 1946 4032 2272 4009 2400 3776 
C 2298 3776 2106 3776 2106 3553 
C 2106 3381 2246 3323 2336 3323 
C 2394 3323 2566 3348 2566 3560 
C 2566 3954 2246 4179 1805 4179 
C 1043 4179 243 3390 243 1984 
C 243 253 966 -128 1478 -128 
C 2099 -128 2688 427 2688 1283 
C 2688 2081 2170 2662 1517 2662 
C 1126 2662 838 2407 678 1960 
L 678 2176 
z
M 1478 25 
C 691 25 691 1200 691 1436 
C 691 1896 909 2560 1504 2560 
C 1613 2560 1926 2560 2138 2120 
C 2253 1870 2253 1609 2253 1289 
C 2253 944 2253 690 2118 434 
C 1978 171 1773 25 1478 25 
z
" transform="scale(0.015625)"/>
       </defs>
       <use xlink:href="#CMR17-36" transform="scale(0.996264)"/>
       <use xlink:href="#CMR17-30" transform="translate(45.690477 0) scale(0.996264)"/>
       <use xlink:href="#CMR17-30" transform="translate(91.380954 0) scale(0.996264)"/>
      </g>
     </g>
    </g>
    <g id="xtick_5">
     <g id="line2d_9">
      <path d="M 569.730769 359.676997 
L 569.730769 27.036997 
" clip-path="url(#peb83296d7c)" style="fill: none; stroke: #b0b0b0; stroke-width: 0.8; stroke-linecap: square"/>
     </g>
     <g id="line2d_10">
      <g>
       <use xlink:href="#mb616978b6b" x="569.730769" y="359.676997" style="stroke: #000000; stroke-width: 0.8"/>
      </g>
     </g>
     <g id="text_5">
      <!-- $\mathdefault{800}$ -->
      <g transform="translate(558.024788 377.746585) scale(0.16 -0.16)">
       <defs>
        <path id="CMR17-38" d="M 1741 2264 
C 2144 2467 2554 2773 2554 3263 
C 2554 3841 1990 4179 1472 4179 
C 890 4179 378 3759 378 3180 
C 378 3021 416 2747 666 2505 
C 730 2442 998 2251 1171 2130 
C 883 1983 211 1634 211 934 
C 211 279 838 -128 1459 -128 
C 2144 -128 2720 362 2720 1010 
C 2720 1590 2330 1857 2074 2029 
L 1741 2264 
z
M 902 2822 
C 851 2854 595 3051 595 3351 
C 595 3739 998 4032 1459 4032 
C 1965 4032 2336 3676 2336 3262 
C 2336 2669 1670 2331 1638 2331 
C 1632 2331 1626 2331 1574 2370 
L 902 2822 
z
M 2080 1519 
C 2176 1449 2483 1240 2483 851 
C 2483 381 2010 25 1472 25 
C 890 25 448 438 448 940 
C 448 1443 838 1862 1280 2060 
L 2080 1519 
z
" transform="scale(0.015625)"/>
       </defs>
       <use xlink:href="#CMR17-38" transform="scale(0.996264)"/>
       <use xlink:href="#CMR17-30" transform="translate(45.690477 0) scale(0.996264)"/>
       <use xlink:href="#CMR17-30" transform="translate(91.380954 0) scale(0.996264)"/>
      </g>
     </g>
    </g>
    <g id="xtick_6">
     <g id="line2d_11">
      <path d="M 691.476223 359.676997 
L 691.476223 27.036997 
" clip-path="url(#peb83296d7c)" style="fill: none; stroke: #b0b0b0; stroke-width: 0.8; stroke-linecap: square"/>
     </g>
     <g id="line2d_12">
      <g>
       <use xlink:href="#mb616978b6b" x="691.476223" y="359.676997" style="stroke: #000000; stroke-width: 0.8"/>
      </g>
     </g>
     <g id="text_6">
      <!-- $\mathdefault{1000}$ -->
      <g transform="translate(675.868249 377.746585) scale(0.16 -0.16)">
       <defs>
        <path id="CMR17-31" d="M 1702 4058 
C 1702 4192 1696 4192 1606 4192 
C 1357 3916 979 3827 621 3827 
C 602 3827 570 3827 563 3808 
C 557 3795 557 3782 557 3648 
C 755 3648 1088 3686 1344 3839 
L 1344 461 
C 1344 236 1331 160 781 160 
L 589 160 
L 589 0 
C 896 0 1216 0 1523 0 
C 1830 0 2150 0 2458 0 
L 2458 160 
L 2266 160 
C 1715 160 1702 230 1702 458 
L 1702 4058 
z
" transform="scale(0.015625)"/>
       </defs>
       <use xlink:href="#CMR17-31" transform="scale(0.996264)"/>
       <use xlink:href="#CMR17-30" transform="translate(45.690477 0) scale(0.996264)"/>
       <use xlink:href="#CMR17-30" transform="translate(91.380954 0) scale(0.996264)"/>
       <use xlink:href="#CMR17-30" transform="translate(137.071431 0) scale(0.996264)"/>
      </g>
     </g>
    </g>
    <g id="text_7">
     <!-- Number of Proposals -->
     <g transform="translate(318.443992 395.91565) scale(0.16 -0.16)">
      <defs>
       <path id="CMSS17-4e" d="M 1466 4180 
L 1350 4416 
L 563 4416 
L 563 0 
L 1062 0 
L 1062 3926 
L 1069 3932 
C 1114 3817 1139 3760 1402 3194 
L 2771 236 
L 2886 0 
L 3674 0 
L 3674 4416 
L 3174 4416 
L 3174 490 
L 3168 483 
C 3123 598 3098 655 2835 1221 
L 1466 4180 
z
" transform="scale(0.015625)"/>
       <path id="CMSS17-75" d="M 2618 2739 
L 2131 2739 
L 2131 972 
C 2131 498 1786 306 1421 306 
C 998 306 960 447 960 709 
L 960 2739 
L 474 2739 
L 474 678 
C 474 179 646 -64 1088 -64 
C 1306 -64 1798 -13 2144 306 
L 2144 0 
L 2618 0 
L 2618 2739 
z
" transform="scale(0.015625)"/>
       <path id="CMSS17-6d" d="M 4288 1877 
C 4288 2308 4179 2816 3462 2816 
C 2982 2816 2694 2516 2566 2331 
C 2451 2670 2182 2816 1798 2816 
C 1363 2816 1088 2568 941 2389 
L 941 2758 
L 474 2758 
L 474 0 
L 960 0 
L 960 1559 
C 960 1939 1101 2428 1555 2428 
C 2138 2428 2138 2016 2138 1829 
L 2138 0 
L 2624 0 
L 2624 1559 
C 2624 1939 2765 2428 3219 2428 
C 3802 2428 3802 2016 3802 1829 
L 3802 0 
L 4288 0 
L 4288 1877 
z
" transform="scale(0.015625)"/>
       <path id="CMSS17-62" d="M 954 4416 
L 480 4416 
L 480 -13 
L 966 -13 
L 966 274 
C 1210 38 1504 -64 1766 -64 
C 2381 -64 2880 549 2880 1352 
C 2880 2086 2496 2756 1926 2756 
C 1523 2756 1165 2591 954 2419 
L 954 4416 
z
M 966 2046 
C 1107 2222 1306 2368 1587 2368 
C 1965 2368 2394 2097 2394 1352 
C 2394 558 1882 325 1530 325 
C 1402 325 1267 356 1139 464 
C 966 615 966 709 966 797 
L 966 2046 
z
" transform="scale(0.015625)"/>
       <path id="CMSS17-65" d="M 2502 1377 
C 2502 1590 2490 2003 2285 2345 
C 2061 2713 1696 2816 1421 2816 
C 755 2816 192 2188 192 1375 
C 192 582 774 -64 1510 -64 
C 1798 -64 2150 19 2470 248 
C 2470 274 2458 414 2451 420 
C 2451 433 2432 630 2432 656 
C 2125 407 1773 325 1517 325 
C 1107 325 666 667 646 1377 
L 2502 1377 
z
M 698 1728 
C 781 2084 1062 2421 1421 2421 
C 1517 2421 1965 2421 2080 1728 
L 698 1728 
z
" transform="scale(0.015625)"/>
       <path id="CMSS17-72" d="M 954 1363 
C 954 1965 1395 2368 1958 2368 
L 1958 2789 
C 1549 2789 1165 2585 934 2253 
L 934 2758 
L 480 2758 
L 480 0 
L 954 0 
L 954 1363 
z
" transform="scale(0.015625)"/>
       <path id="CMSS17-6f" d="M 2829 1356 
C 2829 2176 2221 2816 1504 2816 
C 768 2816 173 2157 173 1356 
C 173 544 787 -64 1498 -64 
C 2227 -64 2829 563 2829 1356 
z
M 1504 337 
C 1050 337 659 709 659 1408 
C 659 2151 1114 2427 1498 2427 
C 1914 2427 2342 2126 2342 1408 
C 2342 683 1926 337 1504 337 
z
" transform="scale(0.015625)"/>
       <path id="CMSS17-66" d="M 1075 2368 
L 1722 2368 
L 1722 2737 
L 1062 2737 
L 1062 3559 
C 1062 4014 1408 4092 1606 4092 
C 1670 4092 1850 4092 2080 4009 
L 2080 4429 
C 1933 4461 1754 4480 1613 4480 
C 1018 4480 602 3993 602 3359 
L 602 2737 
L 160 2737 
L 160 2368 
L 602 2368 
L 602 0 
L 1075 0 
L 1075 2368 
z
" transform="scale(0.015625)"/>
       <path id="CMSS17-50" d="M 2106 1856 
C 2874 1856 3501 2453 3501 3158 
C 3501 3850 2899 4453 2067 4453 
L 570 4453 
L 570 0 
L 1107 0 
L 1107 1856 
L 2106 1856 
z
M 1926 4096 
C 2669 4096 2995 3627 2995 3157 
C 2995 2720 2694 2226 1926 2226 
L 1094 2226 
L 1094 4096 
L 1926 4096 
z
" transform="scale(0.015625)"/>
       <path id="CMSS17-70" d="M 966 333 
C 1178 129 1466 -5 1773 -5 
C 2368 -5 2880 603 2880 1412 
C 2880 2159 2496 2816 1946 2816 
C 1626 2816 1242 2702 954 2472 
L 954 2765 
L 480 2765 
L 480 -1216 
L 966 -1216 
L 966 333 
z
M 966 2100 
C 1018 2176 1235 2415 1587 2415 
C 2035 2415 2394 1960 2394 1412 
C 2394 787 1958 384 1530 384 
C 1402 384 1267 415 1139 523 
C 966 674 966 768 966 857 
L 966 2100 
z
" transform="scale(0.015625)"/>
       <path id="CMSS17-73" d="M 2061 2627 
C 1683 2807 1389 2807 1197 2807 
C 742 2807 198 2648 198 2003 
C 198 1359 902 1218 1094 1179 
C 1389 1122 1715 1058 1715 740 
C 1715 337 1254 337 1171 337 
C 915 337 563 407 243 638 
L 166 210 
C 531 0 883 -64 1178 -64 
C 1965 -64 2163 416 2163 781 
C 2163 1094 1984 1305 1862 1401 
C 1651 1568 1574 1587 1050 1696 
C 960 1709 646 1779 646 2066 
C 646 2432 1050 2432 1139 2432 
C 1555 2432 1811 2303 1984 2208 
L 2061 2627 
z
" transform="scale(0.015625)"/>
       <path id="CMSS17-61" d="M 2406 1791 
C 2406 2392 1978 2808 1402 2808 
C 1120 2808 813 2757 461 2553 
L 499 2135 
C 659 2248 934 2432 1395 2432 
C 1722 2432 1920 2180 1920 1782 
L 1920 1536 
C 896 1536 256 1238 256 726 
C 256 461 416 -64 947 -64 
C 1043 -64 1562 -64 1933 217 
L 1933 -19 
L 2406 -19 
L 2406 1791 
z
M 1920 816 
C 1920 701 1920 548 1728 434 
C 1562 325 1350 325 1261 325 
C 941 325 723 511 723 744 
C 723 1211 1722 1211 1920 1211 
L 1920 816 
z
" transform="scale(0.015625)"/>
       <path id="CMSS17-6c" d="M 947 4416 
L 474 4416 
L 474 0 
L 947 0 
L 947 4416 
z
" transform="scale(0.015625)"/>
      </defs>
      <use xlink:href="#CMSS17-4e" transform="scale(0.996264)"/>
      <use xlink:href="#CMSS17-75" transform="translate(66.061519 0) scale(0.996264)"/>
      <use xlink:href="#CMSS17-6d" transform="translate(114.266462 0) scale(0.996264)"/>
      <use xlink:href="#CMSS17-62" transform="translate(188.495717 0) scale(0.996264)"/>
      <use xlink:href="#CMSS17-65" transform="translate(239.303099 0) scale(0.996264)"/>
      <use xlink:href="#CMSS17-72" transform="translate(280.941921 0) scale(0.996264)"/>
      <use xlink:href="#CMSS17-6f" transform="translate(344.080806 0) scale(0.996264)"/>
      <use xlink:href="#CMSS17-66" transform="translate(390.92443 0) scale(0.996264)"/>
      <use xlink:href="#CMSS17-50" transform="translate(450.780201 0) scale(0.996264)"/>
      <use xlink:href="#CMSS17-72" transform="translate(510.515787 0) scale(0.996264)"/>
      <use xlink:href="#CMSS17-6f" transform="translate(542.42556 0) scale(0.996264)"/>
      <use xlink:href="#CMSS17-70" transform="translate(589.269183 0) scale(0.996264)"/>
      <use xlink:href="#CMSS17-6f" transform="translate(640.076565 0) scale(0.996264)"/>
      <use xlink:href="#CMSS17-73" transform="translate(686.920189 0) scale(0.996264)"/>
      <use xlink:href="#CMSS17-61" transform="translate(722.833731 0) scale(0.996264)"/>
      <use xlink:href="#CMSS17-6c" transform="translate(767.755651 0) scale(0.996264)"/>
      <use xlink:href="#CMSS17-73" transform="translate(789.936374 0) scale(0.996264)"/>
     </g>
    </g>
   </g>
   <g id="matplotlib.axis_2">
    <g id="ytick_1">
     <g id="line2d_13">
      <path d="M 52.312587 344.556997 
L 721.912587 344.556997 
" clip-path="url(#peb83296d7c)" style="fill: none; stroke: #b0b0b0; stroke-width: 0.8; stroke-linecap: square"/>
     </g>
     <g id="line2d_14">
      <defs>
       <path id="me86db3afc7" d="M 0 0 
L -3.5 0 
" style="stroke: #000000; stroke-width: 0.8"/>
      </defs>
      <g>
       <use xlink:href="#me86db3afc7" x="52.312587" y="344.556997" style="stroke: #000000; stroke-width: 0.8"/>
      </g>
     </g>
     <g id="text_8">
      <!-- $\mathdefault{0.0}$ -->
      <g transform="translate(25.369064 350.091791) scale(0.16 -0.16)">
       <defs>
        <path id="CMMI12-3a" d="M 1178 307 
C 1178 492 1024 619 870 619 
C 685 619 557 466 557 313 
C 557 128 710 0 864 0 
C 1050 0 1178 153 1178 307 
z
" transform="scale(0.015625)"/>
       </defs>
       <use xlink:href="#CMR17-30" transform="scale(0.996264)"/>
       <use xlink:href="#CMMI12-3a" transform="translate(45.690477 0) scale(0.996264)"/>
       <use xlink:href="#CMR17-30" transform="translate(72.787654 0) scale(0.996264)"/>
      </g>
     </g>
    </g>
    <g id="ytick_2">
     <g id="line2d_15">
      <path d="M 52.312587 283.721649 
L 721.912587 283.721649 
" clip-path="url(#peb83296d7c)" style="fill: none; stroke: #b0b0b0; stroke-width: 0.8; stroke-linecap: square"/>
     </g>
     <g id="line2d_16">
      <g>
       <use xlink:href="#me86db3afc7" x="52.312587" y="283.721649" style="stroke: #000000; stroke-width: 0.8"/>
      </g>
     </g>
     <g id="text_9">
      <!-- $\mathdefault{0.2}$ -->
      <g transform="translate(25.369064 289.256443) scale(0.16 -0.16)">
       <use xlink:href="#CMR17-30" transform="scale(0.996264)"/>
       <use xlink:href="#CMMI12-3a" transform="translate(45.690477 0) scale(0.996264)"/>
       <use xlink:href="#CMR17-32" transform="translate(72.787654 0) scale(0.996264)"/>
      </g>
     </g>
    </g>
    <g id="ytick_3">
     <g id="line2d_17">
      <path d="M 52.312587 222.886302 
L 721.912587 222.886302 
" clip-path="url(#peb83296d7c)" style="fill: none; stroke: #b0b0b0; stroke-width: 0.8; stroke-linecap: square"/>
     </g>
     <g id="line2d_18">
      <g>
       <use xlink:href="#me86db3afc7" x="52.312587" y="222.886302" style="stroke: #000000; stroke-width: 0.8"/>
      </g>
     </g>
     <g id="text_10">
      <!-- $\mathdefault{0.4}$ -->
      <g transform="translate(25.369064 228.421096) scale(0.16 -0.16)">
       <use xlink:href="#CMR17-30" transform="scale(0.996264)"/>
       <use xlink:href="#CMMI12-3a" transform="translate(45.690477 0) scale(0.996264)"/>
       <use xlink:href="#CMR17-34" transform="translate(72.787654 0) scale(0.996264)"/>
      </g>
     </g>
    </g>
    <g id="ytick_4">
     <g id="line2d_19">
      <path d="M 52.312587 162.050954 
L 721.912587 162.050954 
" clip-path="url(#peb83296d7c)" style="fill: none; stroke: #b0b0b0; stroke-width: 0.8; stroke-linecap: square"/>
     </g>
     <g id="line2d_20">
      <g>
       <use xlink:href="#me86db3afc7" x="52.312587" y="162.050954" style="stroke: #000000; stroke-width: 0.8"/>
      </g>
     </g>
     <g id="text_11">
      <!-- $\mathdefault{0.6}$ -->
      <g transform="translate(25.369064 167.585748) scale(0.16 -0.16)">
       <use xlink:href="#CMR17-30" transform="scale(0.996264)"/>
       <use xlink:href="#CMMI12-3a" transform="translate(45.690477 0) scale(0.996264)"/>
       <use xlink:href="#CMR17-36" transform="translate(72.787654 0) scale(0.996264)"/>
      </g>
     </g>
    </g>
    <g id="ytick_5">
     <g id="line2d_21">
      <path d="M 52.312587 101.215607 
L 721.912587 101.215607 
" clip-path="url(#peb83296d7c)" style="fill: none; stroke: #b0b0b0; stroke-width: 0.8; stroke-linecap: square"/>
     </g>
     <g id="line2d_22">
      <g>
       <use xlink:href="#me86db3afc7" x="52.312587" y="101.215607" style="stroke: #000000; stroke-width: 0.8"/>
      </g>
     </g>
     <g id="text_12">
      <!-- $\mathdefault{0.8}$ -->
      <g transform="translate(25.369064 106.750401) scale(0.16 -0.16)">
       <use xlink:href="#CMR17-30" transform="scale(0.996264)"/>
       <use xlink:href="#CMMI12-3a" transform="translate(45.690477 0) scale(0.996264)"/>
       <use xlink:href="#CMR17-38" transform="translate(72.787654 0) scale(0.996264)"/>
      </g>
     </g>
    </g>
    <g id="ytick_6">
     <g id="line2d_23">
      <path d="M 52.312587 40.380259 
L 721.912587 40.380259 
" clip-path="url(#peb83296d7c)" style="fill: none; stroke: #b0b0b0; stroke-width: 0.8; stroke-linecap: square"/>
     </g>
     <g id="line2d_24">
      <g>
       <use xlink:href="#me86db3afc7" x="52.312587" y="40.380259" style="stroke: #000000; stroke-width: 0.8"/>
      </g>
     </g>
     <g id="text_13">
      <!-- $\mathdefault{1.0}$ -->
      <g transform="translate(25.369064 45.915053) scale(0.16 -0.16)">
       <use xlink:href="#CMR17-31" transform="scale(0.996264)"/>
       <use xlink:href="#CMMI12-3a" transform="translate(45.690477 0) scale(0.996264)"/>
       <use xlink:href="#CMR17-30" transform="translate(72.787654 0) scale(0.996264)"/>
      </g>
     </g>
    </g>
    <g id="text_14">
     <!-- Average Recall -->
     <g transform="translate(18.269588 241.278609) rotate(-90) scale(0.16 -0.16)">
      <defs>
       <path id="CMSS17-41" d="M 2272 4416 
L 1722 4416 
L 166 0 
L 653 0 
L 1101 1280 
L 2816 1280 
L 3270 0 
L 3827 0 
L 2272 4416 
z
M 2694 1637 
L 1222 1637 
C 1530 2528 1914 3638 1958 3925 
L 1965 3925 
C 2010 3663 2138 3281 2246 2956 
L 2694 1637 
z
" transform="scale(0.015625)"/>
       <path id="CMSS17-76" d="M 2675 2752 
L 2176 2752 
L 1747 1556 
C 1613 1165 1421 627 1389 352 
L 1382 352 
C 1370 468 1318 634 1286 749 
C 1248 890 1197 1056 1158 1172 
L 595 2752 
L 83 2752 
L 1094 0 
L 1664 0 
L 2675 2752 
z
" transform="scale(0.015625)"/>
       <path id="CMSS17-67" d="M 2848 2808 
C 2483 2808 2170 2738 1914 2617 
C 1702 2777 1485 2808 1338 2808 
C 781 2808 358 2349 358 1814 
C 358 1468 550 1207 563 1195 
C 448 1035 384 863 384 672 
C 384 448 474 289 544 200 
C 211 -3 166 -314 166 -435 
C 166 -898 749 -1280 1498 -1280 
C 2253 -1280 2835 -898 2835 -428 
C 2835 448 1856 448 1587 448 
L 1069 448 
C 973 448 717 448 717 791 
C 717 921 774 1004 781 1010 
C 877 940 1075 832 1338 832 
C 1869 832 2310 1278 2310 1827 
C 2310 2132 2170 2355 2112 2432 
L 2131 2432 
C 2150 2432 2419 2432 2515 2432 
C 2720 2432 2739 2429 2918 2419 
L 2848 2808 
z
M 1338 1182 
C 1120 1182 813 1315 813 1823 
C 813 2375 1165 2464 1331 2464 
C 1549 2464 1856 2331 1856 1823 
C 1856 1271 1504 1182 1338 1182 
z
M 1581 -10 
C 1734 -10 2381 -10 2381 -442 
C 2381 -714 1984 -929 1504 -929 
C 1018 -929 621 -720 621 -435 
C 621 -403 621 -10 1062 -10 
L 1581 -10 
z
" transform="scale(0.015625)"/>
       <path id="CMSS17-52" d="M 2522 2109 
L 2534 2115 
C 3533 2459 3539 3147 3539 3268 
C 3539 3873 2925 4453 2003 4453 
L 570 4453 
L 570 32 
L 1094 32 
L 1094 2048 
L 2035 2048 
L 3168 32 
L 3706 32 
L 2522 2109 
z
M 1094 2437 
L 1094 4096 
L 1933 4096 
C 2746 4096 3034 3637 3034 3267 
C 3034 2922 2778 2437 1933 2437 
L 1094 2437 
z
" transform="scale(0.015625)"/>
       <path id="CMSS17-63" d="M 2464 2541 
C 2464 2585 2170 2714 2093 2739 
C 1882 2816 1613 2816 1542 2816 
C 710 2816 211 2093 211 1363 
C 211 595 768 -64 1517 -64 
C 1946 -64 2253 76 2502 242 
L 2464 664 
C 2189 453 1869 337 1523 337 
C 1024 337 698 774 698 1369 
C 698 1831 909 2414 1549 2414 
C 1901 2414 2099 2343 2394 2145 
L 2464 2541 
z
" transform="scale(0.015625)"/>
      </defs>
      <use xlink:href="#CMSS17-41" transform="scale(0.996264)"/>
      <use xlink:href="#CMSS17-76" transform="translate(62.217855 0) scale(0.996264)"/>
      <use xlink:href="#CMSS17-65" transform="translate(105.217997 0) scale(0.996264)"/>
      <use xlink:href="#CMSS17-72" transform="translate(146.856819 0) scale(0.996264)"/>
      <use xlink:href="#CMSS17-61" transform="translate(178.766591 0) scale(0.996264)"/>
      <use xlink:href="#CMSS17-67" transform="translate(223.688512 0) scale(0.996264)"/>
      <use xlink:href="#CMSS17-65" transform="translate(270.532135 0) scale(0.996264)"/>
      <use xlink:href="#CMSS17-52" transform="translate(343.40007 0) scale(0.996264)"/>
      <use xlink:href="#CMSS17-65" transform="translate(403.816225 0) scale(0.996264)"/>
      <use xlink:href="#CMSS17-63" transform="translate(445.455047 0) scale(0.996264)"/>
      <use xlink:href="#CMSS17-61" transform="translate(487.093869 0) scale(0.996264)"/>
      <use xlink:href="#CMSS17-6c" transform="translate(532.01579 0) scale(0.996264)"/>
      <use xlink:href="#CMSS17-6c" transform="translate(554.196513 0) scale(0.996264)"/>
     </g>
    </g>
   </g>
   <g id="line2d_25">
    <path d="M 82.74895 344.556997 
L 113.185314 74.138203 
L 143.621678 54.594142 
L 174.058041 49.619284 
L 204.494405 46.7765 
L 234.930769 46.065809 
L 265.367132 45.710472 
L 295.803496 44.289089 
L 326.23986 43.223043 
L 356.676223 44.289089 
L 387.112587 43.933734 
L 417.54895 43.57838 
L 447.985314 42.870607 
L 478.421678 42.867688 
L 508.858041 43.223043 
L 539.294405 42.156997 
L 569.730769 43.223043 
L 600.167132 42.512352 
L 630.603496 42.156997 
L 661.03986 42.512352 
L 691.476223 42.512352 
" clip-path="url(#peb83296d7c)" style="fill: none; stroke: #1f77b4; stroke-width: 1.5; stroke-linecap: square"/>
    <defs>
     <path id="mc8167204e9" d="M 0 3 
C 0.795609 3 1.55874 2.683901 2.12132 2.12132 
C 2.683901 1.55874 3 0.795609 3 0 
C 3 -0.795609 2.683901 -1.55874 2.12132 -2.12132 
C 1.55874 -2.683901 0.795609 -3 0 -3 
C -0.795609 -3 -1.55874 -2.683901 -2.12132 -2.12132 
C -2.683901 -1.55874 -3 -0.795609 -3 0 
C -3 0.795609 -2.683901 1.55874 -2.12132 2.12132 
C -1.55874 2.683901 -0.795609 3 0 3 
z
" style="stroke: #1f77b4"/>
    </defs>
    <g clip-path="url(#peb83296d7c)">
     <use xlink:href="#mc8167204e9" x="82.74895" y="344.556997" style="fill: #1f77b4; stroke: #1f77b4"/>
     <use xlink:href="#mc8167204e9" x="113.185314" y="74.138203" style="fill: #1f77b4; stroke: #1f77b4"/>
     <use xlink:href="#mc8167204e9" x="143.621678" y="54.594142" style="fill: #1f77b4; stroke: #1f77b4"/>
     <use xlink:href="#mc8167204e9" x="174.058041" y="49.619284" style="fill: #1f77b4; stroke: #1f77b4"/>
     <use xlink:href="#mc8167204e9" x="204.494405" y="46.7765" style="fill: #1f77b4; stroke: #1f77b4"/>
     <use xlink:href="#mc8167204e9" x="234.930769" y="46.065809" style="fill: #1f77b4; stroke: #1f77b4"/>
     <use xlink:href="#mc8167204e9" x="265.367132" y="45.710472" style="fill: #1f77b4; stroke: #1f77b4"/>
     <use xlink:href="#mc8167204e9" x="295.803496" y="44.289089" style="fill: #1f77b4; stroke: #1f77b4"/>
     <use xlink:href="#mc8167204e9" x="326.23986" y="43.223043" style="fill: #1f77b4; stroke: #1f77b4"/>
     <use xlink:href="#mc8167204e9" x="356.676223" y="44.289089" style="fill: #1f77b4; stroke: #1f77b4"/>
     <use xlink:href="#mc8167204e9" x="387.112587" y="43.933734" style="fill: #1f77b4; stroke: #1f77b4"/>
     <use xlink:href="#mc8167204e9" x="417.54895" y="43.57838" style="fill: #1f77b4; stroke: #1f77b4"/>
     <use xlink:href="#mc8167204e9" x="447.985314" y="42.870607" style="fill: #1f77b4; stroke: #1f77b4"/>
     <use xlink:href="#mc8167204e9" x="478.421678" y="42.867688" style="fill: #1f77b4; stroke: #1f77b4"/>
     <use xlink:href="#mc8167204e9" x="508.858041" y="43.223043" style="fill: #1f77b4; stroke: #1f77b4"/>
     <use xlink:href="#mc8167204e9" x="539.294405" y="42.156997" style="fill: #1f77b4; stroke: #1f77b4"/>
     <use xlink:href="#mc8167204e9" x="569.730769" y="43.223043" style="fill: #1f77b4; stroke: #1f77b4"/>
     <use xlink:href="#mc8167204e9" x="600.167132" y="42.512352" style="fill: #1f77b4; stroke: #1f77b4"/>
     <use xlink:href="#mc8167204e9" x="630.603496" y="42.156997" style="fill: #1f77b4; stroke: #1f77b4"/>
     <use xlink:href="#mc8167204e9" x="661.03986" y="42.512352" style="fill: #1f77b4; stroke: #1f77b4"/>
     <use xlink:href="#mc8167204e9" x="691.476223" y="42.512352" style="fill: #1f77b4; stroke: #1f77b4"/>
    </g>
   </g>
   <g id="line2d_26">
    <path d="M 82.74895 344.556997 
L 113.185314 128.506234 
L 143.621678 84.443256 
L 174.058041 72.006128 
L 204.494405 63.122458 
L 234.930769 58.858291 
L 265.367132 57.081553 
L 295.803496 52.817405 
L 326.23986 53.528096 
L 356.676223 51.040667 
L 387.112587 51.040667 
L 417.54895 51.040667 
L 447.985314 49.274318 
L 478.421678 48.553238 
L 508.858041 46.065809 
L 539.294405 46.7765 
L 569.730769 46.065809 
L 600.167132 46.065809 
L 630.603496 46.421164 
L 661.03986 45.710472 
L 691.476223 45.710472 
" clip-path="url(#peb83296d7c)" style="fill: none; stroke: #ff7f0e; stroke-width: 1.5; stroke-linecap: square"/>
    <defs>
     <path id="me96225963b" d="M 0 3 
C 0.795609 3 1.55874 2.683901 2.12132 2.12132 
C 2.683901 1.55874 3 0.795609 3 0 
C 3 -0.795609 2.683901 -1.55874 2.12132 -2.12132 
C 1.55874 -2.683901 0.795609 -3 0 -3 
C -0.795609 -3 -1.55874 -2.683901 -2.12132 -2.12132 
C -2.683901 -1.55874 -3 -0.795609 -3 0 
C -3 0.795609 -2.683901 1.55874 -2.12132 2.12132 
C -1.55874 2.683901 -0.795609 3 0 3 
z
" style="stroke: #ff7f0e"/>
    </defs>
    <g clip-path="url(#peb83296d7c)">
     <use xlink:href="#me96225963b" x="82.74895" y="344.556997" style="fill: #ff7f0e; stroke: #ff7f0e"/>
     <use xlink:href="#me96225963b" x="113.185314" y="128.506234" style="fill: #ff7f0e; stroke: #ff7f0e"/>
     <use xlink:href="#me96225963b" x="143.621678" y="84.443256" style="fill: #ff7f0e; stroke: #ff7f0e"/>
     <use xlink:href="#me96225963b" x="174.058041" y="72.006128" style="fill: #ff7f0e; stroke: #ff7f0e"/>
     <use xlink:href="#me96225963b" x="204.494405" y="63.122458" style="fill: #ff7f0e; stroke: #ff7f0e"/>
     <use xlink:href="#me96225963b" x="234.930769" y="58.858291" style="fill: #ff7f0e; stroke: #ff7f0e"/>
     <use xlink:href="#me96225963b" x="265.367132" y="57.081553" style="fill: #ff7f0e; stroke: #ff7f0e"/>
     <use xlink:href="#me96225963b" x="295.803496" y="52.817405" style="fill: #ff7f0e; stroke: #ff7f0e"/>
     <use xlink:href="#me96225963b" x="326.23986" y="53.528096" style="fill: #ff7f0e; stroke: #ff7f0e"/>
     <use xlink:href="#me96225963b" x="356.676223" y="51.040667" style="fill: #ff7f0e; stroke: #ff7f0e"/>
     <use xlink:href="#me96225963b" x="387.112587" y="51.040667" style="fill: #ff7f0e; stroke: #ff7f0e"/>
     <use xlink:href="#me96225963b" x="417.54895" y="51.040667" style="fill: #ff7f0e; stroke: #ff7f0e"/>
     <use xlink:href="#me96225963b" x="447.985314" y="49.274318" style="fill: #ff7f0e; stroke: #ff7f0e"/>
     <use xlink:href="#me96225963b" x="478.421678" y="48.553238" style="fill: #ff7f0e; stroke: #ff7f0e"/>
     <use xlink:href="#me96225963b" x="508.858041" y="46.065809" style="fill: #ff7f0e; stroke: #ff7f0e"/>
     <use xlink:href="#me96225963b" x="539.294405" y="46.7765" style="fill: #ff7f0e; stroke: #ff7f0e"/>
     <use xlink:href="#me96225963b" x="569.730769" y="46.065809" style="fill: #ff7f0e; stroke: #ff7f0e"/>
     <use xlink:href="#me96225963b" x="600.167132" y="46.065809" style="fill: #ff7f0e; stroke: #ff7f0e"/>
     <use xlink:href="#me96225963b" x="630.603496" y="46.421164" style="fill: #ff7f0e; stroke: #ff7f0e"/>
     <use xlink:href="#me96225963b" x="661.03986" y="45.710472" style="fill: #ff7f0e; stroke: #ff7f0e"/>
     <use xlink:href="#me96225963b" x="691.476223" y="45.710472" style="fill: #ff7f0e; stroke: #ff7f0e"/>
    </g>
   </g>
   <g id="line2d_27">
    <path d="M 82.74895 344.556997 
L 113.185314 214.144781 
L 143.621678 166.17299 
L 174.058041 136.323858 
L 204.494405 119.622564 
L 234.930769 100.078504 
L 265.367132 97.591075 
L 295.803496 94.748309 
L 326.23986 81.955827 
L 356.676223 84.798592 
L 387.112587 81.600472 
L 417.54895 76.980968 
L 447.985314 73.110393 
L 478.421678 73.427511 
L 508.858041 68.097298 
L 539.294405 68.452653 
L 569.730769 67.386607 
L 600.167132 65.254532 
L 630.603496 64.899196 
L 661.03986 63.477795 
L 691.476223 62.411766 
" clip-path="url(#peb83296d7c)" style="fill: none; stroke: #2ca02c; stroke-width: 1.5; stroke-linecap: square"/>
    <defs>
     <path id="mbec10bf73c" d="M 0 3 
C 0.795609 3 1.55874 2.683901 2.12132 2.12132 
C 2.683901 1.55874 3 0.795609 3 0 
C 3 -0.795609 2.683901 -1.55874 2.12132 -2.12132 
C 1.55874 -2.683901 0.795609 -3 0 -3 
C -0.795609 -3 -1.55874 -2.683901 -2.12132 -2.12132 
C -2.683901 -1.55874 -3 -0.795609 -3 0 
C -3 0.795609 -2.683901 1.55874 -2.12132 2.12132 
C -1.55874 2.683901 -0.795609 3 0 3 
z
" style="stroke: #2ca02c"/>
    </defs>
    <g clip-path="url(#peb83296d7c)">
     <use xlink:href="#mbec10bf73c" x="82.74895" y="344.556997" style="fill: #2ca02c; stroke: #2ca02c"/>
     <use xlink:href="#mbec10bf73c" x="113.185314" y="214.144781" style="fill: #2ca02c; stroke: #2ca02c"/>
     <use xlink:href="#mbec10bf73c" x="143.621678" y="166.17299" style="fill: #2ca02c; stroke: #2ca02c"/>
     <use xlink:href="#mbec10bf73c" x="174.058041" y="136.323858" style="fill: #2ca02c; stroke: #2ca02c"/>
     <use xlink:href="#mbec10bf73c" x="204.494405" y="119.622564" style="fill: #2ca02c; stroke: #2ca02c"/>
     <use xlink:href="#mbec10bf73c" x="234.930769" y="100.078504" style="fill: #2ca02c; stroke: #2ca02c"/>
     <use xlink:href="#mbec10bf73c" x="265.367132" y="97.591075" style="fill: #2ca02c; stroke: #2ca02c"/>
     <use xlink:href="#mbec10bf73c" x="295.803496" y="94.748309" style="fill: #2ca02c; stroke: #2ca02c"/>
     <use xlink:href="#mbec10bf73c" x="326.23986" y="81.955827" style="fill: #2ca02c; stroke: #2ca02c"/>
     <use xlink:href="#mbec10bf73c" x="356.676223" y="84.798592" style="fill: #2ca02c; stroke: #2ca02c"/>
     <use xlink:href="#mbec10bf73c" x="387.112587" y="81.600472" style="fill: #2ca02c; stroke: #2ca02c"/>
     <use xlink:href="#mbec10bf73c" x="417.54895" y="76.980968" style="fill: #2ca02c; stroke: #2ca02c"/>
     <use xlink:href="#mbec10bf73c" x="447.985314" y="73.110393" style="fill: #2ca02c; stroke: #2ca02c"/>
     <use xlink:href="#mbec10bf73c" x="478.421678" y="73.427511" style="fill: #2ca02c; stroke: #2ca02c"/>
     <use xlink:href="#mbec10bf73c" x="508.858041" y="68.097298" style="fill: #2ca02c; stroke: #2ca02c"/>
     <use xlink:href="#mbec10bf73c" x="539.294405" y="68.452653" style="fill: #2ca02c; stroke: #2ca02c"/>
     <use xlink:href="#mbec10bf73c" x="569.730769" y="67.386607" style="fill: #2ca02c; stroke: #2ca02c"/>
     <use xlink:href="#mbec10bf73c" x="600.167132" y="65.254532" style="fill: #2ca02c; stroke: #2ca02c"/>
     <use xlink:href="#mbec10bf73c" x="630.603496" y="64.899196" style="fill: #2ca02c; stroke: #2ca02c"/>
     <use xlink:href="#mbec10bf73c" x="661.03986" y="63.477795" style="fill: #2ca02c; stroke: #2ca02c"/>
     <use xlink:href="#mbec10bf73c" x="691.476223" y="62.411766" style="fill: #2ca02c; stroke: #2ca02c"/>
    </g>
   </g>
   <g id="line2d_28">
    <path d="M 82.74895 344.556997 
L 113.185314 300.494014 
L 143.621678 268.868163 
L 174.058041 248.968752 
L 204.494405 230.49072 
L 234.930769 215.566163 
L 265.367132 195.666749 
L 295.803496 188.915171 
L 326.23986 183.229621 
L 356.676223 172.569213 
L 387.112587 172.924568 
L 417.54895 166.17299 
L 447.985314 163.82977 
L 478.421678 155.867937 
L 508.858041 153.735844 
L 539.294405 150.182387 
L 569.730769 143.430791 
L 600.167132 138.455951 
L 630.603496 135.25783 
L 661.03986 134.547121 
L 691.476223 126.37416 
" clip-path="url(#peb83296d7c)" style="fill: none; stroke: #d62728; stroke-width: 1.5; stroke-linecap: square"/>
    <defs>
     <path id="m263237c60e" d="M 0 3 
C 0.795609 3 1.55874 2.683901 2.12132 2.12132 
C 2.683901 1.55874 3 0.795609 3 0 
C 3 -0.795609 2.683901 -1.55874 2.12132 -2.12132 
C 1.55874 -2.683901 0.795609 -3 0 -3 
C -0.795609 -3 -1.55874 -2.683901 -2.12132 -2.12132 
C -2.683901 -1.55874 -3 -0.795609 -3 0 
C -3 0.795609 -2.683901 1.55874 -2.12132 2.12132 
C -1.55874 2.683901 -0.795609 3 0 3 
z
" style="stroke: #d62728"/>
    </defs>
    <g clip-path="url(#peb83296d7c)">
     <use xlink:href="#m263237c60e" x="82.74895" y="344.556997" style="fill: #d62728; stroke: #d62728"/>
     <use xlink:href="#m263237c60e" x="113.185314" y="300.494014" style="fill: #d62728; stroke: #d62728"/>
     <use xlink:href="#m263237c60e" x="143.621678" y="268.868163" style="fill: #d62728; stroke: #d62728"/>
     <use xlink:href="#m263237c60e" x="174.058041" y="248.968752" style="fill: #d62728; stroke: #d62728"/>
     <use xlink:href="#m263237c60e" x="204.494405" y="230.49072" style="fill: #d62728; stroke: #d62728"/>
     <use xlink:href="#m263237c60e" x="234.930769" y="215.566163" style="fill: #d62728; stroke: #d62728"/>
     <use xlink:href="#m263237c60e" x="265.367132" y="195.666749" style="fill: #d62728; stroke: #d62728"/>
     <use xlink:href="#m263237c60e" x="295.803496" y="188.915171" style="fill: #d62728; stroke: #d62728"/>
     <use xlink:href="#m263237c60e" x="326.23986" y="183.229621" style="fill: #d62728; stroke: #d62728"/>
     <use xlink:href="#m263237c60e" x="356.676223" y="172.569213" style="fill: #d62728; stroke: #d62728"/>
     <use xlink:href="#m263237c60e" x="387.112587" y="172.924568" style="fill: #d62728; stroke: #d62728"/>
     <use xlink:href="#m263237c60e" x="417.54895" y="166.17299" style="fill: #d62728; stroke: #d62728"/>
     <use xlink:href="#m263237c60e" x="447.985314" y="163.82977" style="fill: #d62728; stroke: #d62728"/>
     <use xlink:href="#m263237c60e" x="478.421678" y="155.867937" style="fill: #d62728; stroke: #d62728"/>
     <use xlink:href="#m263237c60e" x="508.858041" y="153.735844" style="fill: #d62728; stroke: #d62728"/>
     <use xlink:href="#m263237c60e" x="539.294405" y="150.182387" style="fill: #d62728; stroke: #d62728"/>
     <use xlink:href="#m263237c60e" x="569.730769" y="143.430791" style="fill: #d62728; stroke: #d62728"/>
     <use xlink:href="#m263237c60e" x="600.167132" y="138.455951" style="fill: #d62728; stroke: #d62728"/>
     <use xlink:href="#m263237c60e" x="630.603496" y="135.25783" style="fill: #d62728; stroke: #d62728"/>
     <use xlink:href="#m263237c60e" x="661.03986" y="134.547121" style="fill: #d62728; stroke: #d62728"/>
     <use xlink:href="#m263237c60e" x="691.476223" y="126.37416" style="fill: #d62728; stroke: #d62728"/>
    </g>
   </g>
   <g id="line2d_29">
    <path d="M 82.74895 344.556997 
L 113.185314 336.73937 
L 143.621678 331.053824 
L 174.058041 328.566397 
L 204.494405 322.170157 
L 234.930769 319.327385 
L 265.367132 315.418573 
L 295.803496 309.733025 
L 326.23986 309.733025 
L 356.676223 304.04748 
L 387.112587 304.402826 
L 417.54895 302.626093 
L 447.985314 300.086715 
L 478.421678 296.229851 
L 508.858041 297.295893 
L 539.294405 291.965694 
L 569.730769 290.544306 
L 600.167132 287.701536 
L 630.603496 283.437374 
L 661.03986 283.792719 
L 691.476223 285.569452 
" clip-path="url(#peb83296d7c)" style="fill: none; stroke: #9467bd; stroke-width: 1.5; stroke-linecap: square"/>
    <defs>
     <path id="me33a41b08b" d="M 0 3 
C 0.795609 3 1.55874 2.683901 2.12132 2.12132 
C 2.683901 1.55874 3 0.795609 3 0 
C 3 -0.795609 2.683901 -1.55874 2.12132 -2.12132 
C 1.55874 -2.683901 0.795609 -3 0 -3 
C -0.795609 -3 -1.55874 -2.683901 -2.12132 -2.12132 
C -2.683901 -1.55874 -3 -0.795609 -3 0 
C -3 0.795609 -2.683901 1.55874 -2.12132 2.12132 
C -1.55874 2.683901 -0.795609 3 0 3 
z
" style="stroke: #9467bd"/>
    </defs>
    <g clip-path="url(#peb83296d7c)">
     <use xlink:href="#me33a41b08b" x="82.74895" y="344.556997" style="fill: #9467bd; stroke: #9467bd"/>
     <use xlink:href="#me33a41b08b" x="113.185314" y="336.73937" style="fill: #9467bd; stroke: #9467bd"/>
     <use xlink:href="#me33a41b08b" x="143.621678" y="331.053824" style="fill: #9467bd; stroke: #9467bd"/>
     <use xlink:href="#me33a41b08b" x="174.058041" y="328.566397" style="fill: #9467bd; stroke: #9467bd"/>
     <use xlink:href="#me33a41b08b" x="204.494405" y="322.170157" style="fill: #9467bd; stroke: #9467bd"/>
     <use xlink:href="#me33a41b08b" x="234.930769" y="319.327385" style="fill: #9467bd; stroke: #9467bd"/>
     <use xlink:href="#me33a41b08b" x="265.367132" y="315.418573" style="fill: #9467bd; stroke: #9467bd"/>
     <use xlink:href="#me33a41b08b" x="295.803496" y="309.733025" style="fill: #9467bd; stroke: #9467bd"/>
     <use xlink:href="#me33a41b08b" x="326.23986" y="309.733025" style="fill: #9467bd; stroke: #9467bd"/>
     <use xlink:href="#me33a41b08b" x="356.676223" y="304.04748" style="fill: #9467bd; stroke: #9467bd"/>
     <use xlink:href="#me33a41b08b" x="387.112587" y="304.402826" style="fill: #9467bd; stroke: #9467bd"/>
     <use xlink:href="#me33a41b08b" x="417.54895" y="302.626093" style="fill: #9467bd; stroke: #9467bd"/>
     <use xlink:href="#me33a41b08b" x="447.985314" y="300.086715" style="fill: #9467bd; stroke: #9467bd"/>
     <use xlink:href="#me33a41b08b" x="478.421678" y="296.229851" style="fill: #9467bd; stroke: #9467bd"/>
     <use xlink:href="#me33a41b08b" x="508.858041" y="297.295893" style="fill: #9467bd; stroke: #9467bd"/>
     <use xlink:href="#me33a41b08b" x="539.294405" y="291.965694" style="fill: #9467bd; stroke: #9467bd"/>
     <use xlink:href="#me33a41b08b" x="569.730769" y="290.544306" style="fill: #9467bd; stroke: #9467bd"/>
     <use xlink:href="#me33a41b08b" x="600.167132" y="287.701536" style="fill: #9467bd; stroke: #9467bd"/>
     <use xlink:href="#me33a41b08b" x="630.603496" y="283.437374" style="fill: #9467bd; stroke: #9467bd"/>
     <use xlink:href="#me33a41b08b" x="661.03986" y="283.792719" style="fill: #9467bd; stroke: #9467bd"/>
     <use xlink:href="#me33a41b08b" x="691.476223" y="285.569452" style="fill: #9467bd; stroke: #9467bd"/>
    </g>
   </g>
   <g id="patch_3">
    <path d="M 52.312587 359.676997 
L 52.312587 27.036997 
" style="fill: none; stroke: #000000; stroke-width: 0.8; stroke-linejoin: miter; stroke-linecap: square"/>
   </g>
   <g id="patch_4">
    <path d="M 721.912587 359.676997 
L 721.912587 27.036997 
" style="fill: none; stroke: #000000; stroke-width: 0.8; stroke-linejoin: miter; stroke-linecap: square"/>
   </g>
   <g id="patch_5">
    <path d="M 52.312587 359.676997 
L 721.912587 359.676997 
" style="fill: none; stroke: #000000; stroke-width: 0.8; stroke-linejoin: miter; stroke-linecap: square"/>
   </g>
   <g id="patch_6">
    <path d="M 52.312587 27.036997 
L 721.912587 27.036997 
" style="fill: none; stroke: #000000; stroke-width: 0.8; stroke-linejoin: miter; stroke-linecap: square"/>
   </g>
   <g id="text_15">
    <!-- Average Recall vs Number of Proposals for Different IoU Thresholds -->
    <g style="fill: #990000" transform="translate(119.663388 21.036997) scale(0.2 -0.2)">
     <defs>
      <path id="CMSS17-44" d="M 570 4416 
L 570 0 
L 2144 0 
C 3194 0 4000 980 4000 2170 
C 4000 3398 3194 4416 2144 4416 
L 570 4416 
z
M 1094 357 
L 1094 4059 
L 2003 4059 
C 2861 4059 3475 3277 3475 2170 
C 3475 1107 2867 357 2003 357 
L 1094 357 
z
" transform="scale(0.015625)"/>
      <path id="CMSS17-69" d="M 979 4183 
L 442 4183 
L 442 3648 
L 979 3648 
L 979 4183 
z
M 947 2739 
L 474 2739 
L 474 0 
L 947 0 
L 947 2739 
z
" transform="scale(0.015625)"/>
      <path id="CMSS17-b" d="M 1075 2368 
L 1734 2368 
L 1734 2737 
L 1062 2737 
L 1062 3559 
C 1062 4001 1395 4092 1613 4092 
C 1837 4092 2022 4034 2093 4009 
L 2093 4429 
C 2022 4442 1830 4480 1619 4480 
C 1030 4480 602 3999 602 3359 
L 602 2737 
L 160 2737 
L 160 2368 
L 602 2368 
L 602 0 
L 1075 0 
L 1075 2368 
z
M 2739 2368 
L 3398 2368 
L 3398 2737 
L 2726 2737 
L 2726 3559 
C 2726 4001 3059 4092 3277 4092 
C 3501 4092 3686 4034 3757 4009 
L 3757 4429 
C 3686 4442 3494 4480 3283 4480 
C 2694 4480 2266 4001 2266 3363 
L 2266 0 
L 2739 0 
L 2739 2368 
z
" transform="scale(0.015625)"/>
      <path id="CMSS17-6e" d="M 2618 1877 
C 2618 2283 2522 2816 1798 2816 
C 1389 2816 1120 2606 941 2389 
L 941 2758 
L 474 2758 
L 474 0 
L 960 0 
L 960 1559 
C 960 1964 1114 2428 1549 2428 
C 2112 2428 2131 2048 2131 1829 
L 2131 0 
L 2618 0 
L 2618 1877 
z
" transform="scale(0.015625)"/>
      <path id="CMSS17-74" d="M 1069 2368 
L 1901 2368 
L 1901 2737 
L 1069 2737 
L 1069 3520 
L 614 3520 
L 614 2737 
L 109 2737 
L 109 2368 
L 602 2368 
L 602 749 
C 602 384 685 -64 1107 -64 
C 1427 -64 1722 25 2003 172 
L 1901 548 
C 1747 414 1562 337 1363 337 
C 1082 337 1069 696 1069 856 
L 1069 2368 
z
" transform="scale(0.015625)"/>
      <path id="CMSS17-49" d="M 1094 4416 
L 557 4416 
L 557 0 
L 1094 0 
L 1094 4416 
z
" transform="scale(0.015625)"/>
      <path id="CMSS17-55" d="M 3552 4384 
L 3066 4384 
L 3066 1449 
C 3066 604 2547 229 2074 229 
C 1587 229 1101 623 1101 1443 
L 1101 4384 
L 563 4384 
L 563 1454 
C 563 539 1274 -128 2067 -128 
C 2861 -128 3552 539 3552 1454 
L 3552 4384 
z
" transform="scale(0.015625)"/>
      <path id="CMSS17-54" d="M 2317 3968 
L 2848 3968 
C 2925 3968 3002 3968 3078 3968 
L 3878 3968 
L 3878 4376 
L 218 4376 
L 218 3968 
L 1018 3968 
C 1094 3968 1171 3968 1248 3968 
L 1779 3968 
L 1779 -32 
L 2317 -32 
L 2317 3968 
z
" transform="scale(0.015625)"/>
      <path id="CMSS17-68" d="M 2618 1891 
C 2618 2292 2522 2820 1798 2820 
C 1395 2820 1133 2623 947 2407 
L 947 4448 
L 474 4448 
L 474 32 
L 960 32 
L 960 1573 
C 960 1973 1114 2432 1549 2432 
C 2112 2432 2131 2056 2131 1839 
L 2131 32 
L 2618 32 
L 2618 1891 
z
" transform="scale(0.015625)"/>
      <path id="CMSS17-64" d="M 2611 4416 
L 2138 4416 
L 2138 2438 
C 1939 2603 1613 2756 1254 2756 
C 672 2756 211 2131 211 1347 
C 211 562 666 -64 1235 -64 
C 1677 -64 1971 172 2125 306 
L 2125 -13 
L 2611 -13 
L 2611 4416 
z
M 2125 836 
C 2125 747 2125 653 1926 482 
C 1798 375 1645 325 1498 325 
C 1152 325 698 576 698 1340 
C 698 2134 1210 2368 1562 2368 
C 1798 2368 1990 2254 2125 2065 
L 2125 836 
z
" transform="scale(0.015625)"/>
     </defs>
     <use xlink:href="#CMSS17-41" transform="scale(0.996264)"/>
     <use xlink:href="#CMSS17-76" transform="translate(62.217855 0) scale(0.996264)"/>
     <use xlink:href="#CMSS17-65" transform="translate(105.217997 0) scale(0.996264)"/>
     <use xlink:href="#CMSS17-72" transform="translate(146.856819 0) scale(0.996264)"/>
     <use xlink:href="#CMSS17-61" transform="translate(178.766591 0) scale(0.996264)"/>
     <use xlink:href="#CMSS17-67" transform="translate(223.688512 0) scale(0.996264)"/>
     <use xlink:href="#CMSS17-65" transform="translate(270.532135 0) scale(0.996264)"/>
     <use xlink:href="#CMSS17-52" transform="translate(343.40007 0) scale(0.996264)"/>
     <use xlink:href="#CMSS17-65" transform="translate(403.816225 0) scale(0.996264)"/>
     <use xlink:href="#CMSS17-63" transform="translate(445.455047 0) scale(0.996264)"/>
     <use xlink:href="#CMSS17-61" transform="translate(487.093869 0) scale(0.996264)"/>
     <use xlink:href="#CMSS17-6c" transform="translate(532.01579 0) scale(0.996264)"/>
     <use xlink:href="#CMSS17-6c" transform="translate(554.196513 0) scale(0.996264)"/>
     <use xlink:href="#CMSS17-76" transform="translate(607.606349 0) scale(0.996264)"/>
     <use xlink:href="#CMSS17-73" transform="translate(650.60649 0) scale(0.996264)"/>
     <use xlink:href="#CMSS17-4e" transform="translate(717.749145 0) scale(0.996264)"/>
     <use xlink:href="#CMSS17-75" transform="translate(783.810664 0) scale(0.996264)"/>
     <use xlink:href="#CMSS17-6d" transform="translate(832.015607 0) scale(0.996264)"/>
     <use xlink:href="#CMSS17-62" transform="translate(906.244862 0) scale(0.996264)"/>
     <use xlink:href="#CMSS17-65" transform="translate(957.052244 0) scale(0.996264)"/>
     <use xlink:href="#CMSS17-72" transform="translate(998.691066 0) scale(0.996264)"/>
     <use xlink:href="#CMSS17-6f" transform="translate(1061.829951 0) scale(0.996264)"/>
     <use xlink:href="#CMSS17-66" transform="translate(1108.673575 0) scale(0.996264)"/>
     <use xlink:href="#CMSS17-50" transform="translate(1168.529346 0) scale(0.996264)"/>
     <use xlink:href="#CMSS17-72" transform="translate(1228.264932 0) scale(0.996264)"/>
     <use xlink:href="#CMSS17-6f" transform="translate(1260.174705 0) scale(0.996264)"/>
     <use xlink:href="#CMSS17-70" transform="translate(1307.018328 0) scale(0.996264)"/>
     <use xlink:href="#CMSS17-6f" transform="translate(1357.82571 0) scale(0.996264)"/>
     <use xlink:href="#CMSS17-73" transform="translate(1404.669334 0) scale(0.996264)"/>
     <use xlink:href="#CMSS17-61" transform="translate(1440.582876 0) scale(0.996264)"/>
     <use xlink:href="#CMSS17-6c" transform="translate(1485.504796 0) scale(0.996264)"/>
     <use xlink:href="#CMSS17-73" transform="translate(1507.68552 0) scale(0.996264)"/>
     <use xlink:href="#CMSS17-66" transform="translate(1574.828174 0) scale(0.996264)"/>
     <use xlink:href="#CMSS17-6f" transform="translate(1603.454833 0) scale(0.996264)"/>
     <use xlink:href="#CMSS17-72" transform="translate(1647.696003 0) scale(0.996264)"/>
     <use xlink:href="#CMSS17-44" transform="translate(1710.834888 0) scale(0.996264)"/>
     <use xlink:href="#CMSS17-69" transform="translate(1778.37773 0) scale(0.996264)"/>
     <use xlink:href="#CMSS17-b" transform="translate(1800.558453 0) scale(0.996264)"/>
     <use xlink:href="#CMSS17-65" transform="translate(1855.209423 0) scale(0.996264)"/>
     <use xlink:href="#CMSS17-72" transform="translate(1896.848245 0) scale(0.996264)"/>
     <use xlink:href="#CMSS17-65" transform="translate(1928.758017 0) scale(0.996264)"/>
     <use xlink:href="#CMSS17-6e" transform="translate(1970.396839 0) scale(0.996264)"/>
     <use xlink:href="#CMSS17-74" transform="translate(2018.601783 0) scale(0.996264)"/>
     <use xlink:href="#CMSS17-49" transform="translate(2083.662462 0) scale(0.996264)"/>
     <use xlink:href="#CMSS17-6f" transform="translate(2109.446388 0) scale(0.996264)"/>
     <use xlink:href="#CMSS17-55" transform="translate(2156.290011 0) scale(0.996264)"/>
     <use xlink:href="#CMSS17-54" transform="translate(2251.658864 0) scale(0.996264)"/>
     <use xlink:href="#CMSS17-68" transform="translate(2315.478318 0) scale(0.996264)"/>
     <use xlink:href="#CMSS17-72" transform="translate(2363.683261 0) scale(0.996264)"/>
     <use xlink:href="#CMSS17-65" transform="translate(2395.593034 0) scale(0.996264)"/>
     <use xlink:href="#CMSS17-73" transform="translate(2437.231856 0) scale(0.996264)"/>
     <use xlink:href="#CMSS17-68" transform="translate(2473.145398 0) scale(0.996264)"/>
     <use xlink:href="#CMSS17-6f" transform="translate(2521.350341 0) scale(0.996264)"/>
     <use xlink:href="#CMSS17-6c" transform="translate(2568.193964 0) scale(0.996264)"/>
     <use xlink:href="#CMSS17-64" transform="translate(2590.374687 0) scale(0.996264)"/>
     <use xlink:href="#CMSS17-73" transform="translate(2638.579631 0) scale(0.996264)"/>
    </g>
   </g>
   <g id="legend_1">
    <g id="patch_7">
     <path d="M 47.960318 474.639425 
L 730.264855 474.639425 
Q 733.464855 474.639425 733.464855 471.439425 
L 733.464855 406.140997 
Q 733.464855 402.940997 730.264855 402.940997 
L 47.960318 402.940997 
Q 44.760318 402.940997 44.760318 406.140997 
L 44.760318 471.439425 
Q 44.760318 474.639425 47.960318 474.639425 
z
" style="fill: #4d4d4d; opacity: 0.5; stroke: #4d4d4d; stroke-linejoin: miter"/>
    </g>
    <g id="patch_8">
     <path d="M 45.960318 472.639425 
L 728.264855 472.639425 
Q 731.464855 472.639425 731.464855 469.439425 
L 731.464855 404.140997 
Q 731.464855 400.940997 728.264855 400.940997 
L 45.960318 400.940997 
Q 42.760318 400.940997 42.760318 404.140997 
L 42.760318 469.439425 
Q 42.760318 472.639425 45.960318 472.639425 
z
" style="fill: #ffffff; stroke: #cccccc; stroke-linejoin: miter"/>
    </g>
    <g id="line2d_30">
     <path d="M 49.160318 412.940997 
L 65.160318 412.940997 
L 81.160318 412.940997 
" style="fill: none; stroke: #1f77b4; stroke-width: 1.5; stroke-linecap: square"/>
     <g>
      <use xlink:href="#mc8167204e9" x="65.160318" y="412.940997" style="fill: #1f77b4; stroke: #1f77b4"/>
     </g>
    </g>
    <g id="text_16">
     <!-- IoU $&gt;$ 0.5 Pothole, IoU 0.5 $\leq$ Background -->
     <g transform="translate(93.960318 418.540997) scale(0.16 -0.16)">
      <defs>
       <path id="CMMI12-3e" d="M 4218 1449 
C 4339 1507 4346 1545 4346 1590 
C 4346 1628 4333 1673 4218 1725 
L 755 3322 
C 672 3360 659 3360 646 3360 
C 570 3360 525 3296 525 3245 
C 525 3168 576 3142 659 3104 
L 3949 1590 
L 653 65 
C 525 6 525 -39 525 -77 
C 525 -128 570 -192 646 -192 
C 659 -192 666 -185 755 -147 
L 4218 1449 
z
" transform="scale(0.015625)"/>
       <path id="CMSS17-30" d="M 2758 2044 
C 2758 2405 2752 3077 2490 3596 
C 2227 4096 1805 4229 1504 4229 
C 1069 4229 698 3975 506 3570 
C 301 3146 243 2709 243 2044 
C 243 1589 262 1031 493 543 
C 755 5 1197 -128 1498 -128 
C 1894 -128 2278 81 2496 518 
C 2720 974 2758 1474 2758 2044 
z
M 1498 261 
C 1011 261 864 811 819 995 
C 742 1310 730 1614 730 2114 
C 730 2506 730 2948 851 3297 
C 998 3701 1254 3840 1498 3840 
C 1971 3840 2125 3372 2176 3208 
C 2272 2873 2272 2481 2272 2114 
C 2272 1526 2272 261 1498 261 
z
" transform="scale(0.015625)"/>
       <path id="CMSS17-2e" d="M 1088 510 
L 576 510 
L 576 0 
L 1088 0 
L 1088 510 
z
" transform="scale(0.015625)"/>
       <path id="CMSS17-35" d="M 934 3752 
L 2502 3752 
L 2502 4160 
L 467 4160 
L 467 1781 
L 896 1781 
C 1011 2046 1248 2240 1555 2240 
C 1843 2240 2163 1989 2163 1266 
C 2163 493 1709 267 1376 267 
C 966 267 589 512 422 851 
L 218 499 
C 512 49 992 -128 1376 -128 
C 2118 -128 2701 497 2701 1253 
C 2701 2030 2182 2629 1562 2629 
C 1338 2629 1120 2553 934 2399 
L 934 3752 
z
" transform="scale(0.015625)"/>
       <path id="CMSS17-2c" d="M 1088 6 
L 1088 510 
L 576 510 
L 576 0 
L 736 0 
L 570 -800 
L 826 -800 
L 1088 6 
z
" transform="scale(0.015625)"/>
       <path id="CMSY10-14" d="M 4320 3812 
C 4390 3844 4442 3876 4442 3952 
C 4442 4023 4390 4080 4314 4080 
C 4282 4080 4224 4055 4198 4042 
L 659 2372 
C 550 2320 531 2276 531 2224 
C 531 2167 570 2122 659 2084 
L 4198 420 
C 4282 375 4294 375 4314 375 
C 4384 375 4442 432 4442 503 
C 4442 560 4416 599 4307 650 
L 960 2224 
L 4320 3812 
z
M 4218 -891 
C 4326 -891 4442 -891 4442 -763 
C 4442 -635 4307 -635 4211 -635 
L 762 -635 
C 666 -635 531 -635 531 -763 
C 531 -891 646 -891 755 -891 
L 4218 -891 
z
" transform="scale(0.015625)"/>
       <path id="CMSS17-42" d="M 570 4416 
L 570 0 
L 2163 0 
C 3034 0 3667 574 3667 1200 
C 3667 1685 3251 2176 2502 2317 
C 3334 2558 3501 3040 3501 3313 
C 3501 3883 2874 4416 1997 4416 
L 570 4416 
z
M 1088 2496 
L 1088 4059 
L 1824 4059 
C 2483 4059 3002 3724 3002 3306 
C 3002 2926 2592 2496 1766 2496 
L 1088 2496 
z
M 1088 357 
L 1088 2107 
L 1939 2107 
C 2630 2107 3162 1679 3162 1206 
C 3162 772 2694 357 1984 357 
L 1088 357 
z
" transform="scale(0.015625)"/>
       <path id="CMSS17-6b" d="M 1696 1688 
L 2688 2739 
L 2074 2739 
L 954 1554 
L 954 4416 
L 480 4416 
L 480 0 
L 947 0 
L 947 892 
L 1376 1344 
L 2278 0 
L 2822 0 
L 1696 1688 
z
" transform="scale(0.015625)"/>
      </defs>
      <use xlink:href="#CMSS17-49" transform="scale(0.996264)"/>
      <use xlink:href="#CMSS17-6f" transform="translate(25.783926 0) scale(0.996264)"/>
      <use xlink:href="#CMSS17-55" transform="translate(72.627549 0) scale(0.996264)"/>
      <use xlink:href="#CMMI12-3e" transform="translate(167.996402 0) scale(0.996264)"/>
      <use xlink:href="#CMSS17-30" transform="translate(275.097611 0) scale(0.996264)"/>
      <use xlink:href="#CMSS17-2e" transform="translate(321.941234 0) scale(0.996264)"/>
      <use xlink:href="#CMSS17-35" transform="translate(347.965439 0) scale(0.996264)"/>
      <use xlink:href="#CMSS17-50" transform="translate(426.038175 0) scale(0.996264)"/>
      <use xlink:href="#CMSS17-6f" transform="translate(483.171308 0) scale(0.996264)"/>
      <use xlink:href="#CMSS17-74" transform="translate(530.014931 0) scale(0.996264)"/>
      <use xlink:href="#CMSS17-68" transform="translate(563.846498 0) scale(0.996264)"/>
      <use xlink:href="#CMSS17-6f" transform="translate(612.051441 0) scale(0.996264)"/>
      <use xlink:href="#CMSS17-6c" transform="translate(658.895065 0) scale(0.996264)"/>
      <use xlink:href="#CMSS17-65" transform="translate(681.075788 0) scale(0.996264)"/>
      <use xlink:href="#CMSS17-2c" transform="translate(722.71461 0) scale(0.996264)"/>
      <use xlink:href="#CMSS17-49" transform="translate(779.967927 0) scale(0.996264)"/>
      <use xlink:href="#CMSS17-6f" transform="translate(805.751853 0) scale(0.996264)"/>
      <use xlink:href="#CMSS17-55" transform="translate(852.595476 0) scale(0.996264)"/>
      <use xlink:href="#CMSS17-30" transform="translate(947.964329 0) scale(0.996264)"/>
      <use xlink:href="#CMSS17-2e" transform="translate(994.807953 0) scale(0.996264)"/>
      <use xlink:href="#CMSS17-35" transform="translate(1020.832158 0) scale(0.996264)"/>
      <use xlink:href="#CMSY10-14" transform="translate(1098.904894 0) scale(0.996264)"/>
      <use xlink:href="#CMSS17-42" transform="translate(1207.621474 0) scale(0.996264)"/>
      <use xlink:href="#CMSS17-61" transform="translate(1269.959515 0) scale(0.996264)"/>
      <use xlink:href="#CMSS17-63" transform="translate(1314.881435 0) scale(0.996264)"/>
      <use xlink:href="#CMSS17-6b" transform="translate(1356.520257 0) scale(0.996264)"/>
      <use xlink:href="#CMSS17-67" transform="translate(1402.122746 0) scale(0.996264)"/>
      <use xlink:href="#CMSS17-72" transform="translate(1448.96637 0) scale(0.996264)"/>
      <use xlink:href="#CMSS17-6f" transform="translate(1480.876143 0) scale(0.996264)"/>
      <use xlink:href="#CMSS17-75" transform="translate(1527.719766 0) scale(0.996264)"/>
      <use xlink:href="#CMSS17-6e" transform="translate(1575.924709 0) scale(0.996264)"/>
      <use xlink:href="#CMSS17-64" transform="translate(1624.129652 0) scale(0.996264)"/>
     </g>
    </g>
    <g id="line2d_31">
     <path d="M 49.160318 435.240473 
L 65.160318 435.240473 
L 81.160318 435.240473 
" style="fill: none; stroke: #ff7f0e; stroke-width: 1.5; stroke-linecap: square"/>
     <g>
      <use xlink:href="#me96225963b" x="65.160318" y="435.240473" style="fill: #ff7f0e; stroke: #ff7f0e"/>
     </g>
    </g>
    <g id="text_17">
     <!-- IoU $&gt;$ 0.6 Pothole, IoU 0.6 $\leq$ Background -->
     <g transform="translate(93.960318 440.840473) scale(0.16 -0.16)">
      <defs>
       <path id="CMSS17-36" d="M 2496 4101 
C 2227 4210 2035 4229 1856 4229 
C 1024 4229 250 3368 250 2006 
C 250 265 986 -128 1510 -128 
C 1798 -128 2086 -39 2362 280 
C 2643 617 2752 898 2752 1389 
C 2752 2179 2362 2880 1779 2880 
C 1357 2880 992 2657 768 2376 
C 832 3258 1254 3840 1862 3840 
C 2029 3840 2246 3816 2496 3710 
L 2496 4101 
z
M 774 1369 
C 774 1420 774 1452 781 1548 
C 781 2045 1069 2491 1536 2491 
C 1837 2491 1990 2332 2106 2135 
C 2240 1886 2246 1650 2246 1388 
C 2246 1140 2246 891 2099 637 
C 1978 439 1818 267 1510 267 
C 902 267 800 1114 774 1369 
z
" transform="scale(0.015625)"/>
      </defs>
      <use xlink:href="#CMSS17-49" transform="scale(0.996264)"/>
      <use xlink:href="#CMSS17-6f" transform="translate(25.783926 0) scale(0.996264)"/>
      <use xlink:href="#CMSS17-55" transform="translate(72.627549 0) scale(0.996264)"/>
      <use xlink:href="#CMMI12-3e" transform="translate(167.996402 0) scale(0.996264)"/>
      <use xlink:href="#CMSS17-30" transform="translate(275.097611 0) scale(0.996264)"/>
      <use xlink:href="#CMSS17-2e" transform="translate(321.941234 0) scale(0.996264)"/>
      <use xlink:href="#CMSS17-36" transform="translate(347.965439 0) scale(0.996264)"/>
      <use xlink:href="#CMSS17-50" transform="translate(426.038175 0) scale(0.996264)"/>
      <use xlink:href="#CMSS17-6f" transform="translate(483.171308 0) scale(0.996264)"/>
      <use xlink:href="#CMSS17-74" transform="translate(530.014931 0) scale(0.996264)"/>
      <use xlink:href="#CMSS17-68" transform="translate(563.846498 0) scale(0.996264)"/>
      <use xlink:href="#CMSS17-6f" transform="translate(612.051441 0) scale(0.996264)"/>
      <use xlink:href="#CMSS17-6c" transform="translate(658.895065 0) scale(0.996264)"/>
      <use xlink:href="#CMSS17-65" transform="translate(681.075788 0) scale(0.996264)"/>
      <use xlink:href="#CMSS17-2c" transform="translate(722.71461 0) scale(0.996264)"/>
      <use xlink:href="#CMSS17-49" transform="translate(779.967927 0) scale(0.996264)"/>
      <use xlink:href="#CMSS17-6f" transform="translate(805.751853 0) scale(0.996264)"/>
      <use xlink:href="#CMSS17-55" transform="translate(852.595476 0) scale(0.996264)"/>
      <use xlink:href="#CMSS17-30" transform="translate(947.964329 0) scale(0.996264)"/>
      <use xlink:href="#CMSS17-2e" transform="translate(994.807953 0) scale(0.996264)"/>
      <use xlink:href="#CMSS17-36" transform="translate(1020.832158 0) scale(0.996264)"/>
      <use xlink:href="#CMSY10-14" transform="translate(1098.904894 0) scale(0.996264)"/>
      <use xlink:href="#CMSS17-42" transform="translate(1207.621474 0) scale(0.996264)"/>
      <use xlink:href="#CMSS17-61" transform="translate(1269.959515 0) scale(0.996264)"/>
      <use xlink:href="#CMSS17-63" transform="translate(1314.881435 0) scale(0.996264)"/>
      <use xlink:href="#CMSS17-6b" transform="translate(1356.520257 0) scale(0.996264)"/>
      <use xlink:href="#CMSS17-67" transform="translate(1402.122746 0) scale(0.996264)"/>
      <use xlink:href="#CMSS17-72" transform="translate(1448.96637 0) scale(0.996264)"/>
      <use xlink:href="#CMSS17-6f" transform="translate(1480.876143 0) scale(0.996264)"/>
      <use xlink:href="#CMSS17-75" transform="translate(1527.719766 0) scale(0.996264)"/>
      <use xlink:href="#CMSS17-6e" transform="translate(1575.924709 0) scale(0.996264)"/>
      <use xlink:href="#CMSS17-64" transform="translate(1624.129652 0) scale(0.996264)"/>
     </g>
    </g>
    <g id="line2d_32">
     <path d="M 49.160318 457.539949 
L 65.160318 457.539949 
L 81.160318 457.539949 
" style="fill: none; stroke: #2ca02c; stroke-width: 1.5; stroke-linecap: square"/>
     <g>
      <use xlink:href="#mbec10bf73c" x="65.160318" y="457.539949" style="fill: #2ca02c; stroke: #2ca02c"/>
     </g>
    </g>
    <g id="text_18">
     <!-- IoU $&gt;$ 0.7 Pothole, IoU 0.7 $\leq$ Background -->
     <g transform="translate(93.960318 463.139949) scale(0.16 -0.16)">
      <defs>
       <path id="CMSS17-37" d="M 1389 3776 
C 1466 3776 1542 3776 1619 3776 
L 2355 3776 
C 1440 2711 915 1365 915 -32 
L 1427 -32 
C 1427 1323 1875 2696 2752 3795 
L 2752 4209 
L 250 4209 
L 250 3776 
L 1389 3776 
z
" transform="scale(0.015625)"/>
      </defs>
      <use xlink:href="#CMSS17-49" transform="scale(0.996264)"/>
      <use xlink:href="#CMSS17-6f" transform="translate(25.783926 0) scale(0.996264)"/>
      <use xlink:href="#CMSS17-55" transform="translate(72.627549 0) scale(0.996264)"/>
      <use xlink:href="#CMMI12-3e" transform="translate(167.996402 0) scale(0.996264)"/>
      <use xlink:href="#CMSS17-30" transform="translate(275.097611 0) scale(0.996264)"/>
      <use xlink:href="#CMSS17-2e" transform="translate(321.941234 0) scale(0.996264)"/>
      <use xlink:href="#CMSS17-37" transform="translate(347.965439 0) scale(0.996264)"/>
      <use xlink:href="#CMSS17-50" transform="translate(426.038175 0) scale(0.996264)"/>
      <use xlink:href="#CMSS17-6f" transform="translate(483.171308 0) scale(0.996264)"/>
      <use xlink:href="#CMSS17-74" transform="translate(530.014931 0) scale(0.996264)"/>
      <use xlink:href="#CMSS17-68" transform="translate(563.846498 0) scale(0.996264)"/>
      <use xlink:href="#CMSS17-6f" transform="translate(612.051441 0) scale(0.996264)"/>
      <use xlink:href="#CMSS17-6c" transform="translate(658.895065 0) scale(0.996264)"/>
      <use xlink:href="#CMSS17-65" transform="translate(681.075788 0) scale(0.996264)"/>
      <use xlink:href="#CMSS17-2c" transform="translate(722.71461 0) scale(0.996264)"/>
      <use xlink:href="#CMSS17-49" transform="translate(779.967927 0) scale(0.996264)"/>
      <use xlink:href="#CMSS17-6f" transform="translate(805.751853 0) scale(0.996264)"/>
      <use xlink:href="#CMSS17-55" transform="translate(852.595476 0) scale(0.996264)"/>
      <use xlink:href="#CMSS17-30" transform="translate(947.964329 0) scale(0.996264)"/>
      <use xlink:href="#CMSS17-2e" transform="translate(994.807953 0) scale(0.996264)"/>
      <use xlink:href="#CMSS17-37" transform="translate(1020.832158 0) scale(0.996264)"/>
      <use xlink:href="#CMSY10-14" transform="translate(1098.904894 0) scale(0.996264)"/>
      <use xlink:href="#CMSS17-42" transform="translate(1207.621474 0) scale(0.996264)"/>
      <use xlink:href="#CMSS17-61" transform="translate(1269.959515 0) scale(0.996264)"/>
      <use xlink:href="#CMSS17-63" transform="translate(1314.881435 0) scale(0.996264)"/>
      <use xlink:href="#CMSS17-6b" transform="translate(1356.520257 0) scale(0.996264)"/>
      <use xlink:href="#CMSS17-67" transform="translate(1402.122746 0) scale(0.996264)"/>
      <use xlink:href="#CMSS17-72" transform="translate(1448.96637 0) scale(0.996264)"/>
      <use xlink:href="#CMSS17-6f" transform="translate(1480.876143 0) scale(0.996264)"/>
      <use xlink:href="#CMSS17-75" transform="translate(1527.719766 0) scale(0.996264)"/>
      <use xlink:href="#CMSS17-6e" transform="translate(1575.924709 0) scale(0.996264)"/>
      <use xlink:href="#CMSS17-64" transform="translate(1624.129652 0) scale(0.996264)"/>
     </g>
    </g>
    <g id="line2d_33">
     <path d="M 403.112587 412.940997 
L 419.112587 412.940997 
L 435.112587 412.940997 
" style="fill: none; stroke: #d62728; stroke-width: 1.5; stroke-linecap: square"/>
     <g>
      <use xlink:href="#m263237c60e" x="419.112587" y="412.940997" style="fill: #d62728; stroke: #d62728"/>
     </g>
    </g>
    <g id="text_19">
     <!-- IoU $&gt;$ 0.8 Pothole, IoU 0.8 $\leq$ Background -->
     <g transform="translate(447.912587 418.540997) scale(0.16 -0.16)">
      <defs>
       <path id="CMSS17-38" d="M 1933 2222 
C 2419 2380 2669 2760 2669 3134 
C 2669 3722 2157 4229 1504 4229 
C 826 4229 333 3708 333 3144 
C 333 2780 576 2403 1069 2241 
C 442 1997 250 1512 250 1149 
C 250 446 819 -128 1498 -128 
C 2202 -128 2752 455 2752 1138 
C 2752 1557 2502 2000 1933 2222 
z
M 1504 2432 
C 1075 2432 787 2712 787 3136 
C 787 3566 1075 3840 1504 3840 
C 1901 3840 2214 3591 2214 3136 
C 2214 2687 1907 2432 1504 2432 
z
M 1504 267 
C 1139 267 749 517 749 1156 
C 749 1813 1184 2043 1498 2043 
C 1843 2043 2253 1800 2253 1156 
C 2253 491 1830 267 1504 267 
z
" transform="scale(0.015625)"/>
      </defs>
      <use xlink:href="#CMSS17-49" transform="scale(0.996264)"/>
      <use xlink:href="#CMSS17-6f" transform="translate(25.783926 0) scale(0.996264)"/>
      <use xlink:href="#CMSS17-55" transform="translate(72.627549 0) scale(0.996264)"/>
      <use xlink:href="#CMMI12-3e" transform="translate(167.996402 0) scale(0.996264)"/>
      <use xlink:href="#CMSS17-30" transform="translate(275.097611 0) scale(0.996264)"/>
      <use xlink:href="#CMSS17-2e" transform="translate(321.941234 0) scale(0.996264)"/>
      <use xlink:href="#CMSS17-38" transform="translate(347.965439 0) scale(0.996264)"/>
      <use xlink:href="#CMSS17-50" transform="translate(426.038175 0) scale(0.996264)"/>
      <use xlink:href="#CMSS17-6f" transform="translate(483.171308 0) scale(0.996264)"/>
      <use xlink:href="#CMSS17-74" transform="translate(530.014931 0) scale(0.996264)"/>
      <use xlink:href="#CMSS17-68" transform="translate(563.846498 0) scale(0.996264)"/>
      <use xlink:href="#CMSS17-6f" transform="translate(612.051441 0) scale(0.996264)"/>
      <use xlink:href="#CMSS17-6c" transform="translate(658.895065 0) scale(0.996264)"/>
      <use xlink:href="#CMSS17-65" transform="translate(681.075788 0) scale(0.996264)"/>
      <use xlink:href="#CMSS17-2c" transform="translate(722.71461 0) scale(0.996264)"/>
      <use xlink:href="#CMSS17-49" transform="translate(779.967927 0) scale(0.996264)"/>
      <use xlink:href="#CMSS17-6f" transform="translate(805.751853 0) scale(0.996264)"/>
      <use xlink:href="#CMSS17-55" transform="translate(852.595476 0) scale(0.996264)"/>
      <use xlink:href="#CMSS17-30" transform="translate(947.964329 0) scale(0.996264)"/>
      <use xlink:href="#CMSS17-2e" transform="translate(994.807953 0) scale(0.996264)"/>
      <use xlink:href="#CMSS17-38" transform="translate(1020.832158 0) scale(0.996264)"/>
      <use xlink:href="#CMSY10-14" transform="translate(1098.904894 0) scale(0.996264)"/>
      <use xlink:href="#CMSS17-42" transform="translate(1207.621474 0) scale(0.996264)"/>
      <use xlink:href="#CMSS17-61" transform="translate(1269.959515 0) scale(0.996264)"/>
      <use xlink:href="#CMSS17-63" transform="translate(1314.881435 0) scale(0.996264)"/>
      <use xlink:href="#CMSS17-6b" transform="translate(1356.520257 0) scale(0.996264)"/>
      <use xlink:href="#CMSS17-67" transform="translate(1402.122746 0) scale(0.996264)"/>
      <use xlink:href="#CMSS17-72" transform="translate(1448.96637 0) scale(0.996264)"/>
      <use xlink:href="#CMSS17-6f" transform="translate(1480.876143 0) scale(0.996264)"/>
      <use xlink:href="#CMSS17-75" transform="translate(1527.719766 0) scale(0.996264)"/>
      <use xlink:href="#CMSS17-6e" transform="translate(1575.924709 0) scale(0.996264)"/>
      <use xlink:href="#CMSS17-64" transform="translate(1624.129652 0) scale(0.996264)"/>
     </g>
    </g>
    <g id="line2d_34">
     <path d="M 403.112587 435.240473 
L 419.112587 435.240473 
L 435.112587 435.240473 
" style="fill: none; stroke: #9467bd; stroke-width: 1.5; stroke-linecap: square"/>
     <g>
      <use xlink:href="#me33a41b08b" x="419.112587" y="435.240473" style="fill: #9467bd; stroke: #9467bd"/>
     </g>
    </g>
    <g id="text_20">
     <!-- IoU $&gt;$ 0.9 Pothole, IoU 0.9 $\leq$ Background -->
     <g transform="translate(447.912587 440.840473) scale(0.16 -0.16)">
      <defs>
       <path id="CMSS17-39" d="M 435 174 
C 614 21 845 -128 1235 -128 
C 2010 -128 2752 721 2752 2095 
C 2752 3932 1952 4229 1523 4229 
C 1094 4229 819 4041 582 3741 
C 301 3397 250 3090 250 2733 
C 250 2307 326 2045 506 1745 
C 749 1357 973 1275 1222 1275 
C 1600 1275 1978 1459 2234 1776 
C 2189 902 1798 267 1235 267 
C 1005 267 819 339 634 516 
L 435 174 
z
M 2214 2746 
C 2221 2703 2221 2622 2221 2596 
C 2221 2074 1914 1664 1466 1664 
C 1171 1664 1018 1813 902 2006 
C 762 2249 755 2485 755 2733 
C 755 2976 755 3244 934 3511 
C 1069 3703 1235 3840 1523 3840 
C 2112 3840 2208 3000 2214 2746 
z
" transform="scale(0.015625)"/>
      </defs>
      <use xlink:href="#CMSS17-49" transform="scale(0.996264)"/>
      <use xlink:href="#CMSS17-6f" transform="translate(25.783926 0) scale(0.996264)"/>
      <use xlink:href="#CMSS17-55" transform="translate(72.627549 0) scale(0.996264)"/>
      <use xlink:href="#CMMI12-3e" transform="translate(167.996402 0) scale(0.996264)"/>
      <use xlink:href="#CMSS17-30" transform="translate(275.097611 0) scale(0.996264)"/>
      <use xlink:href="#CMSS17-2e" transform="translate(321.941234 0) scale(0.996264)"/>
      <use xlink:href="#CMSS17-39" transform="translate(347.965439 0) scale(0.996264)"/>
      <use xlink:href="#CMSS17-50" transform="translate(426.038175 0) scale(0.996264)"/>
      <use xlink:href="#CMSS17-6f" transform="translate(483.171308 0) scale(0.996264)"/>
      <use xlink:href="#CMSS17-74" transform="translate(530.014931 0) scale(0.996264)"/>
      <use xlink:href="#CMSS17-68" transform="translate(563.846498 0) scale(0.996264)"/>
      <use xlink:href="#CMSS17-6f" transform="translate(612.051441 0) scale(0.996264)"/>
      <use xlink:href="#CMSS17-6c" transform="translate(658.895065 0) scale(0.996264)"/>
      <use xlink:href="#CMSS17-65" transform="translate(681.075788 0) scale(0.996264)"/>
      <use xlink:href="#CMSS17-2c" transform="translate(722.71461 0) scale(0.996264)"/>
      <use xlink:href="#CMSS17-49" transform="translate(779.967927 0) scale(0.996264)"/>
      <use xlink:href="#CMSS17-6f" transform="translate(805.751853 0) scale(0.996264)"/>
      <use xlink:href="#CMSS17-55" transform="translate(852.595476 0) scale(0.996264)"/>
      <use xlink:href="#CMSS17-30" transform="translate(947.964329 0) scale(0.996264)"/>
      <use xlink:href="#CMSS17-2e" transform="translate(994.807953 0) scale(0.996264)"/>
      <use xlink:href="#CMSS17-39" transform="translate(1020.832158 0) scale(0.996264)"/>
      <use xlink:href="#CMSY10-14" transform="translate(1098.904894 0) scale(0.996264)"/>
      <use xlink:href="#CMSS17-42" transform="translate(1207.621474 0) scale(0.996264)"/>
      <use xlink:href="#CMSS17-61" transform="translate(1269.959515 0) scale(0.996264)"/>
      <use xlink:href="#CMSS17-63" transform="translate(1314.881435 0) scale(0.996264)"/>
      <use xlink:href="#CMSS17-6b" transform="translate(1356.520257 0) scale(0.996264)"/>
      <use xlink:href="#CMSS17-67" transform="translate(1402.122746 0) scale(0.996264)"/>
      <use xlink:href="#CMSS17-72" transform="translate(1448.96637 0) scale(0.996264)"/>
      <use xlink:href="#CMSS17-6f" transform="translate(1480.876143 0) scale(0.996264)"/>
      <use xlink:href="#CMSS17-75" transform="translate(1527.719766 0) scale(0.996264)"/>
      <use xlink:href="#CMSS17-6e" transform="translate(1575.924709 0) scale(0.996264)"/>
      <use xlink:href="#CMSS17-64" transform="translate(1624.129652 0) scale(0.996264)"/>
     </g>
    </g>
   </g>
  </g>
 </g>
 <defs>
  <clipPath id="peb83296d7c">
   <rect x="52.312587" y="27.036997" width="669.6" height="332.64"/>
  </clipPath>
 </defs>
</svg>
